<svg xmlns="http://www.w3.org/2000/svg" width="967.18774mm" height="300mm" viewBox="0 0 967.18776 300"><g style="fill:#1e409a;fill-opacity:1;stroke:none"><g style="fill:#1e409a;fill-opacity:1;stroke:none"><path d="M0 0c-.136-.246-.242-.516-.414-.733-2.419-3.064-5.57-4.804-9.456-5.227-3.679-.402-7.227.257-10.713 1.341-2.981.927-5.93 1.979-9.008 2.534-7.17 1.293-13.118-.911-17.883-6.39-.13-.149-.253-.306-.38-.459-.007-.008-.023-.009-.124-.049 1.427 2.732 3.435 4.832 5.97 6.568-.302.074-.524.125-.745.185-1.706.457-3.142 1.428-4.587 2.391-1.165.776-2.318 1.595-3.566 2.214-1.57.778-3.263.961-4.981.429-.176-.054-.344-.135-.511-.214-.082-.039-.151-.101-.241-.163.054-.047.086-.091.131-.114 1.933-.981 3.132-2.59 3.924-4.557.721-1.792 1.001-3.665 1.097-5.633-.072.053-.117.07-.138.103-1.466 2.344-3.656 3.628-6.287 4.212-3.147.701-6.269.404-9.346-.43-1.479-.401-2.917-.952-4.391-1.376-2.654-.762-5.344-1.067-8.076-.415-1.252.298-2.404.816-3.402 1.639-.267.221-.479.51-.717.768l.081.109c.165-.078.338-.143.494-.236 1.877-1.118 3.916-1.461 6.068-1.302 2.523.187 4.889.996 7.258 1.8 1.666.566 3.333 1.125 5.09 1.356 3.324.436 6.459-.131 9.388-1.762.77-.428 1.485-.955 2.227-1.438-.007-.011.022.015.018.027-.679 1.791-1.502 3.501-2.834 4.916-1.308 1.388-2.932 2.153-4.81 2.373-.718.084-1.447.074-2.171.111-.11.006-.218.042-.328.064.038.117.044.264.12.347.65.711 1.433 1.058 2.416.869.506-.098 1.019-.159 1.53-.238.572-.09 1.111-.011 1.673.165.968.302 1.957.575 2.958.725 1.737.26 3.377-.159 4.878-1.039 1.082-.635 2.122-1.346 3.164-2.048 1.573-1.06 3.215-1.935 5.134-2.19 1.159-.155 2.299-.108 3.415.237 4.682 1.445 9.284 1.198 13.843-.557 2.319-.894 4.654-1.758 7.015-2.531 2.384-.78 4.846-1.116 7.363-.88 3.171.298 5.925 1.593 8.403 3.539.443.348.876.708 1.314 1.062L0 0" style="fill:#1e409a;fill-opacity:1;fill-rule:nonzero;stroke:none" transform="matrix(10.98799 0 0 -10.98799 967.188 50.394)"/></g><g style="fill:#1e409a;fill-opacity:1;stroke:none"><path d="M0 0h-3.083v11.967h.727c.675 0 1.351-.012 2.025.006.273.008.422-.088.564-.32C1.599 9.432 2.978 7.22 4.354 5.006a.752.752 0 0 1 .275-.282c.01.146.028.293.028.439.002 2.078.001 4.157.001 6.236 0 .568.001.568.587.568h2.469V-.02c-.964 0-1.902-.012-2.838.014-.122.005-.271.184-.353.316C3.127 2.527 1.739 4.75.35 6.971c-.091.146-.19.285-.35.528V0" style="fill:#1e409a;fill-opacity:1;fill-rule:nonzero;stroke:none" transform="matrix(10.98799 0 0 -10.98799 881.88 297.086)"/></g><g style="fill:#1e409a;fill-opacity:1;stroke:none"><path d="M0 0c.762.063 1.478.074 2.173.197.497.089.743.51.741.998-.002.513-.257.921-.779 1.007-.693.113-1.403.121-2.135.175Zm1.113-2.255-.005-.042c-.251 0-.504-.013-.754.004-.266.015-.379-.071-.373-.357a47.47 47.47 0 0 0 0-2.101c-.005-.284.109-.37.376-.361.449.014.902-.03 1.346.016.414.044.848.111 1.219.284.58.27.626.835.567 1.4-.053.513-.336.867-.849.97-.501.1-1.018.127-1.527.187M4.405-.847c.17-.085.272-.14.377-.189 2.407-1.099 2.157-4.023.695-5.254-.866-.729-1.889-1.013-2.975-1.043-1.773-.048-3.545-.025-5.319-.043-.355-.003-.284.234-.284.433-.003 2.606-.002 5.214-.002 7.821v3.375c0 .188-.022.372.27.367 1.864-.037 3.731-.018 5.593-.112 1.008-.05 1.938-.429 2.59-1.279.983-1.286.674-3.044-.682-3.911-.065-.042-.132-.082-.263-.165" style="fill:#1e409a;fill-opacity:1;fill-rule:nonzero;stroke:none" transform="matrix(10.98799 0 0 -10.98799 346.694 216.323)"/></g><g style="fill:#1e409a;fill-opacity:1;stroke:none"><path d="M0 0h3.104c.007-.16.021-.313.021-.467.002-2.251-.001-4.502.003-6.753 0-.277.015-.556.051-.831.026-.208.072-.42.15-.614.299-.746 1.099-1.129 2.164-1.056.982.068 1.615.521 1.795 1.336.079.359.107.735.108 1.102.01 2.278.014 4.556-.004 6.833-.002.386.106.5.489.485.741-.03 1.483-.007 2.224-.01.141 0 .283-.011.444-.018.011-.134.025-.237.025-.34-.006-2.489 0-4.979-.024-7.467-.026-2.656-1.769-3.995-4.109-4.317-1.292-.178-2.569-.109-3.792.373-1.8.709-2.645 2.098-2.669 3.983-.031 2.516-.007 5.032-.006 7.548 0 .063.015.126.026.213" style="fill:#1e409a;fill-opacity:1;fill-rule:nonzero;stroke:none" transform="matrix(10.98799 0 0 -10.98799 439.63 165.874)"/></g><g style="fill:#1e409a;fill-opacity:1;stroke:none"><path d="M0 0h-2.844c-.027.14-.018.286-.08.394-.159.276-.291.628-.538.786-.712.455-1.494.432-2.225.027-.631-.351-.631-.999.015-1.317.612-.303 1.279-.494 1.919-.746.797-.316 1.615-.597 2.381-.977C1.03-3.022.787-6.179-.943-7.525c-.971-.755-2.1-.98-3.28-1.011-1.245-.034-2.457.144-3.545.82-1.043.649-1.63 1.596-1.825 2.798-.017.104-.017.211-.019.317 0 .063.011.126.021.214h2.774c.605-1.524 1.844-2.112 3.305-1.564.123.047.244.102.354.175.521.342.558.878.049 1.229-.322.222-.695.379-1.059.532-1.035.436-2.106.797-3.11 1.296-1.645.817-2.285 2.215-1.843 3.907.333 1.274 1.278 1.971 2.458 2.379 1.485.514 2.964.468 4.417-.139C-.814 2.829.022 1.568 0 0" style="fill:#1e409a;fill-opacity:1;fill-rule:nonzero;stroke:none" transform="matrix(10.98799 0 0 -10.98799 682.729 206.055)"/></g><g style="fill:#1e409a;fill-opacity:1;stroke:none"><path d="M0 0c-.414 1.196-.802 2.323-1.19 3.45l-.115-.002L-2.474 0Zm-7.415-4.875c.569 1.489 1.103 2.895 1.643 4.301.937 2.443 1.882 4.884 2.809 7.332.107.284.245.383.544.376a69.782 69.782 0 0 1 2.421-.002c.209.001.335-.045.418-.262C1.883 3.055 3.354-.755 4.821-4.567c.032-.083.044-.174.076-.307-1.045 0-2.061-.006-3.076.011-.082.001-.197.151-.235.255-.218.61-.429 1.222-.62 1.841-.076.246-.207.322-.458.319-1.164-.01-2.329-.012-3.493.002-.273.003-.398-.087-.476-.349A32.11 32.11 0 0 0-4.066-4.6c-.04-.109-.177-.261-.271-.263-1.003-.019-2.008-.012-3.078-.012" style="fill:#1e409a;fill-opacity:1;fill-rule:nonzero;stroke:none" transform="matrix(10.98799 0 0 -10.98799 777.146 243.907)"/></g><g style="fill:#1e409a;fill-opacity:1;stroke:none"><path d="M0 0c0-.662.003-1.324-.001-1.985-.001-.195.03-.342.275-.333.819.027 1.644-.003 2.456.087 1.169.13 1.917.993 1.961 2.136.047 1.206-.521 2.007-1.749 2.22-.879.152-1.789.119-2.686.167-.26.015-.256-.167-.256-.346V0m3.605-3.263L6.75-8.598c-.545 0-1.015-.021-1.48.015-.112.008-.234.189-.309.317a398.12 398.12 0 0 0-2.599 4.412c-.172.297-.362.447-.72.416A7.134 7.134 0 0 0 .491-3.44c-.375.027-.506-.089-.5-.483C.014-5.3 0-6.677 0-8.054v-.511h-1.283V3.347c.074.021.123.048.173.047 1.376-.025 2.755.001 4.126-.094 1.627-.113 2.742-1.13 3-2.592.301-1.709-.439-3.089-2.034-3.793-.107-.048-.212-.1-.377-.178" style="fill:#1e409a;fill-opacity:1;fill-rule:nonzero;stroke:none" transform="matrix(10.98799 0 0 -10.98799 177.142 202.953)"/></g><g style="fill:#1e409a;fill-opacity:1;stroke:none"><path d="M0 0h3.824l-1.87 5.894a3.413 3.413 0 0 0-.099.004L0 0m6.598-4.367c-.412 0-.793-.019-1.171.013-.096.009-.221.162-.261.274a75.168 75.168 0 0 0-.868 2.553c-.081.258-.192.359-.468.356a206.087 206.087 0 0 0-3.852-.002c-.255.004-.369-.087-.447-.33-.272-.842-.581-1.673-.852-2.516-.089-.275-.228-.378-.513-.356-.302.023-.607.005-.974.005.214.635.409 1.227.611 1.818C-1.088.687.026 3.924 1.124 7.168c.119.35.276.538.665.47.128-.022.266-.017.396 0 .255.031.378-.081.458-.32.683-2.029 1.376-4.055 2.066-6.082l1.789-5.257c.033-.097.058-.198.1-.346" style="fill:#1e409a;fill-opacity:1;fill-rule:nonzero;stroke:none" transform="matrix(10.98799 0 0 -10.98799 30.854 249.48)"/></g><g style="fill:#1e409a;fill-opacity:1;stroke:none"><path d="M0 0V-11.48c0-.509-.001-.509-.524-.51-.835 0-.835 0-.835.838 0 3.482-.003 6.964.001 10.445.001.831-.101.691.724.707.195.003.389 0 .634 0" style="fill:#1e409a;fill-opacity:1;fill-rule:nonzero;stroke:none" transform="matrix(10.98799 0 0 -10.98799 134.284 165.59)"/></g></g></svg>