<svg xmlns="http://www.w3.org/2000/svg" width="1448.402mm" height="300mm" viewBox="0 0 1448.402 300"><g style="fill:#1db898;fill-opacity:1"><path d="m0 0-3.98-10.37h2.851l2.603 7.176 2.525-7.176h2.852L2.947 0Z" style="fill:#1db898;fill-opacity:1;fill-rule:nonzero;stroke:none" transform="matrix(13.06728 0 0 -13.06728 52.008 69.24)"/></g><path d="M-114.99-14.208h35.518v-135.507h-35.517z" style="fill:#1db898;fill-opacity:1;fill-rule:nonzero;stroke:none;stroke-width:13.0673" transform="translate(278.027 218.96)"/><g style="fill:#1db898;fill-opacity:1"><path d="M0 0c-.625-.36-1.53-.26-1.53-.26v2.592s.737.078 1.35-.145c.463-.168.774-.537.774-1.088C.594.571.403.232 0 0m3.029-.363c.648 1.175.377 2.798-.137 3.458C2.378 3.756 1.536 4.4-.3 4.4h-3.946V-5.97h2.718l-.002 4.013L1.193-5.97h3.17L1.142-1.718s1.241.181 1.887 1.355" style="fill:#1db898;fill-opacity:1;fill-rule:nonzero;stroke:none" transform="matrix(13.06728 0 0 -13.06728 292.535 126.74)"/></g><g style="fill:#1db898;fill-opacity:1"><path d="M0 0c-.536.181-.802.483-.763.896.038.414.404.772.891.844 1.006.148 2.096-.632 2.096-.632l1.024 1.991c-.752.449-1.87.958-3.472.868-2.07-.115-3.25-1.539-3.341-3.155-.074-1.327.531-2.463 2.339-3.089.649-.224 1.622-.405 1.954-.894.424-.62-.01-1.713-1.528-1.467-1.045.17-2.048 1.01-2.048 1.01l-1.143-2.14S-2.233-7.14.202-6.937c3.526.291 3.905 3.561 3.214 4.896C2.726-.708 1.07-.363 0 0" style="fill:#1db898;fill-opacity:1;fill-rule:nonzero;stroke:none" transform="matrix(13.06728 0 0 -13.06728 447.842 117.565)"/></g><g style="fill:#1db898;fill-opacity:1"><path d="M0 0h2.908v2.265H.016v1.828h3.066v2.196h-5.749v-10.37h5.892v2.269H0Z" style="fill:#1db898;fill-opacity:1;fill-rule:nonzero;stroke:none" transform="matrix(13.06728 0 0 -13.06728 561.786 151.42)"/></g><g style="fill:#1db898;fill-opacity:1"><path d="M0 0c-1.643 0-2.916 1.319-2.916 2.989C-2.916 4.61-1.54 5.872 0 5.872S2.917 4.61 2.917 2.989C2.917 1.319 1.646 0 0 0m0 8.46c-3.142 0-5.665-2.36-5.665-5.491C-5.665-.296-3.377-2.59 0-2.59c3.377 0 5.664 2.294 5.664 5.559C5.664 6.1 3.141 8.46 0 8.46" style="fill:#1db898;fill-opacity:1;fill-rule:nonzero;stroke:none" transform="matrix(13.06728 0 0 -13.06728 703.981 175.372)"/></g><g style="fill:#1db898;fill-opacity:1"><path d="M0 0c0-1.832-1.045-2.172-1.741-2.172-.696 0-1.897.249-1.897 2.224v6.07h-2.694V-.023c0-3.205 1.809-4.503 4.63-4.503 2.761 0 4.409 1.547 4.409 4.373v6.275H0Z" style="fill:#1db898;fill-opacity:1;fill-rule:nonzero;stroke:none" transform="matrix(13.06728 0 0 -13.06728 893.488 149.237)"/></g><g style="fill:#1db898;fill-opacity:1"><path d="M0 0v8.117h-2.682v-10.37h5.809V0Z" style="fill:#1db898;fill-opacity:1;fill-rule:nonzero;stroke:none" transform="matrix(13.06728 0 0 -13.06728 1002.251 175.308)"/></g><g style="fill:#1db898;fill-opacity:1"><path d="m0 0-2.727 7.242h-4.448l-6.007-15.654h4.303L-4.95 2.42l1.646-4.678C-2.424-1.258-1.293-.479 0 0" style="fill:#1db898;fill-opacity:1;fill-rule:nonzero;stroke:none" transform="matrix(13.06728 0 0 -13.06728 1299.442 94.633)"/></g><g style="fill:#1db898;fill-opacity:1"><path d="M0 0c0-.31.029-.609.086-.899l.003-.007h4.305L2.592 3.881C1.104 3.23 0 1.762 0 0" style="fill:#1db898;fill-opacity:1;fill-rule:nonzero;stroke:none" transform="matrix(13.06728 0 0 -13.06728 1283.415 192.715)"/></g><g style="fill:#b7bab1;fill-opacity:1"><path d="M0 0a8.763 8.763 0 0 1-3.065-.547L-1.7-4.172a4.223 4.223 0 0 0 1.7.359c2.267 0 4.29-1.854 4.29-4.24 0-2.456-1.87-4.398-4.29-4.398-2.115 0-3.812 1.483-4.206 3.499l-2.163 6.147c-1.228-1.396-1.966-3.223-1.966-5.277 0-4.805 3.364-8.181 8.335-8.181 4.972 0 8.334 3.376 8.334 8.181C8.334-3.476 4.623 0 0 0" style="fill:#b7bab1;fill-opacity:1;fill-rule:nonzero;stroke:none" transform="matrix(13.06728 0 0 -13.06728 1339.5 87.487)"/></g><g style="fill:#018b7e;fill-opacity:1"><path d="M0 0c0 1.762 1.104 3.23 2.592 3.881L1.227 7.506a8.183 8.183 0 0 1-3.304-2.258L.086-.899C.029-.609 0-.31 0 0" style="fill:#018b7e;fill-opacity:1;fill-rule:nonzero;stroke:none" transform="matrix(13.06728 0 0 -13.06728 1283.415 192.715)"/></g></svg>