<svg xmlns="http://www.w3.org/2000/svg" xml:space="preserve" x="0px" y="0px" viewBox="0 0 1366 300"><path fill="#ED1C24" d="M1164.392 96.9c0 2.562.391 5.147 1.381 7.597 4.478 11.06 15.788 17.837 30.144 12.079 3.455-1.385 98.782-39.762 98.782-39.762s-37.551 95.131-38.935 98.688c-5.49 13.63 1.077 25.984 12.286 30.133 2.483.893 5.035 1.337 7.579 1.312 9.069-.058 17.136-5.404 21.054-16.142.618-1.634 47.533-130.488 48.603-133.625.589-1.811 1.692-6.13 1.713-9.119.011-6.376-2.364-12.404-6.915-16.908-4.532-4.514-10.438-6.842-16.746-6.828-3.036 0-5.541.56-9.311 1.767-2.266.701-123.281 45.744-133.603 49.619-10.361 3.857-16.061 12.102-16.032 21.189"/><path fill="#4A4F54" d="m64.716 188.189-13.677 43.734h27.506l-13.829-43.734zm25.637 83.724-6.625-22.326H45.866l-6.697 22.326H17.88l36.358-107.291h20.967l36.437 107.291H90.353zM190.74 257.188c-6.961 12.596-20.674 16.868-34.301 16.868-18.119 0-34.839-7.467-40.134-26.143-1.236-4.092-1.388-8.201-1.699-12.466h19.905c.311 2.917.734 5.588 1.858 8.375 3.462 8.639 11.313 12.296 20.328 12.296 6.867 0 17.143-2.891 17.143-11.414 0-1.832-.582-3.029-1.359-4.695-2.248-4.562-10.615-7.742-15.04-9.542-9.115-3.853-20.638-7.97-28.423-13.839-7.262-5.638-10.927-13.55-10.927-22.691 0-20.624 17.957-31.442 36.759-31.442 13.554 0 27.852 5.812 33.766 18.856 2.284 4.851 2.888 9.434 3.177 14.693h-19.894c.145-9.972-8.067-15.784-17.519-15.784-6.698 0-15.596 3.669-15.596 11.599 0 7.608 9.387 10.319 15.177 12.592 9.148 3.625 21.914 7.753 29.819 13.37 7.886 5.581 11.071 13.677 11.071 23.215-.002 5.649-1.386 11.294-4.111 16.152M209 164.619h20.657v107.294H209zM287.154 188.189l-13.677 43.734h27.495l-13.818-43.734zm25.663 83.724-6.668-22.326h-37.858l-6.687 22.326H240.38l36.321-107.291h20.931l36.495 107.291h-21.31zM406.318 271.913l-44.96-75.541v75.541h-19.615v-107.29h22.081l43.622 75.523v-75.523h19.579v107.29zM481.498 188.189l-13.677 43.734h27.509l-13.832-43.734zm25.662 83.724-6.687-22.326h-37.85l-6.676 22.326H434.68l36.321-107.291h20.953l36.506 107.291h-21.3zM623.632 188.109l-13.677 43.785h27.502l-13.825-43.785zm25.677 83.754-6.662-22.341h-37.868l-6.69 22.341h-21.282l36.328-107.279h21l36.452 107.279h-21.278zM681.69 164.583h20.635v107.279H681.69zM767.413 184.184c-4.569-2.161-10.981-1.977-15.979-1.977h-9.867v31.008h13.536c10.941 0 20.519-3.011 20.519-15.965 0-5.938-2.733-10.633-8.209-13.066m10.93 87.679-21.911-41.038h-14.866v41.038h-20.685v-107.28h29.071c8.599 0 17.747-.311 25.97 2.75 13.522 4.854 20.783 16.095 20.783 30.271 0 13.616-6.495 23.978-18.987 29.743l24.658 44.515h-24.033zM812.687 271.863v-107.28h21.109v89.667h46.673v17.613zM892.62 164.583h20.707v107.279H892.62zM996.419 271.863l-44.97-75.498v75.498h-19.601v-107.28h22.026l43.619 75.513v-75.513h19.583v107.28zM1035.506 271.863v-107.28h67.607v17.624h-46.951v25.221h42.715v17.61h-42.715v29.212h48.618v17.613zM1187.026 257.138c-7.023 12.571-20.711 16.868-34.384 16.868-18.04 0-34.767-7.485-40.08-26.158-1.261-4.088-1.409-8.215-1.699-12.455h19.908c.318 2.899.777 5.631 1.854 8.367 3.484 8.646 11.378 12.278 20.324 12.278 6.839 0 17.183-2.862 17.183-11.36 0-1.847-.622-3.043-1.37-4.713-2.299-4.572-10.626-7.782-15.047-9.557-9.072-3.824-20.653-7.933-28.399-13.854-7.316-5.617-10.97-13.5-10.97-22.623 0-20.693 17.938-31.467 36.77-31.467 13.561 0 27.828 5.751 33.784 18.82 2.277 4.854 2.866 9.444 3.203 14.736h-19.948c.184-10.034-8.031-15.81-17.454-15.81-6.698 0-15.69 3.658-15.69 11.57 0 7.615 9.474 10.33 15.203 12.629 9.13 3.643 21.896 7.728 29.79 13.352 7.926 5.613 11.122 13.709 11.122 23.263-.001 5.603-1.371 11.252-4.1 16.114"/></svg>