<?xml version="1.0" standalone="no"?>
<!DOCTYPE svg PUBLIC "-//W3C//DTD SVG 20010904//EN"
 "http://www.w3.org/TR/2001/REC-SVG-20010904/DTD/svg10.dtd">
<svg version="1.0" xmlns="http://www.w3.org/2000/svg"
 width="500.000000pt" height="112.000000pt" viewBox="0 0 500.000000 112.000000"
 preserveAspectRatio="xMidYMid meet">

<g transform="translate(0.000000,112.000000) scale(0.100000,-0.100000)"
fill="#000000" stroke="none">
<path d="M391 1014 c-38 -32 -54 -85 -41 -135 6 -20 17 -42 25 -49 13 -11 11
-17 -19 -46 -43 -41 -70 -120 -70 -199 0 -79 33 -151 112 -244 67 -80 92 -125
99 -182 8 -54 30 -71 88 -67 32 2 52 9 59 21 14 22 -2 49 -34 57 -16 4 -26 17
-35 45 -15 52 -36 91 -73 138 l-30 37 34 68 c65 132 78 239 35 307 l-19 30 30
31 c37 40 47 97 24 146 -33 69 -127 91 -185 42z m110 -86 c14 -26 -6 -50 -40
-46 -32 4 -42 45 -16 64 21 15 42 8 56 -18z m-33 -210 c20 -20 13 -99 -16
-172 -15 -38 -32 -71 -38 -73 -16 -5 -44 69 -44 115 0 99 55 173 98 130z"/>
<path d="M862 818 c-21 -21 -14 -66 12 -83 53 -35 115 34 70 79 -18 19 -65 21
-82 4z"/>
<path d="M3553 803 c-10 -4 -13 -63 -13 -249 l0 -244 45 0 44 0 3 77 3 76 59
-76 58 -77 60 0 60 0 -54 61 c-82 95 -97 113 -98 122 0 5 34 49 76 98 l75 89
-59 0 -59 0 -59 -77 -59 -77 -3 140 -3 141 -32 0 c-17 1 -38 -1 -44 -4z"/>
<path d="M4898 688 c-3 -81 -5 -93 -21 -96 -30 -6 -67 7 -67 24 0 26 -39 93
-65 110 -32 21 -99 20 -132 -1 -83 -55 -83 -275 0 -330 24 -15 47 -19 94 -16
38 2 84 52 98 106 12 49 13 50 51 50 l39 0 3 -137 3 -138 39 0 40 0 0 260 0
260 -40 0 -39 0 -3 -92z m-183 -33 c22 -21 25 -33 25 -90 0 -72 -9 -99 -40
-115 -49 -26 -85 35 -78 131 4 49 9 66 27 80 30 25 37 24 66 -6z"/>
<path d="M1480 725 c0 -38 -3 -45 -20 -45 -17 0 -20 -7 -20 -40 0 -33 4 -40
19 -40 17 0 19 -10 23 -116 l3 -116 33 -29 c27 -25 41 -29 88 -29 l55 0 -3 38
c-3 34 -6 37 -38 42 l-35 5 -3 103 -3 102 41 0 40 0 0 40 0 40 -40 0 -40 0 0
45 0 45 -50 0 -50 0 0 -45z"/>
<path d="M4090 635 l0 -125 180 0 180 0 0 30 0 30 -146 0 c-133 0 -145 1 -142
18 3 15 19 17 141 20 l137 3 0 24 0 24 -137 3 c-122 3 -138 5 -141 21 -3 16 9
17 142 17 l146 0 0 30 0 30 -180 0 -180 0 0 -125z"/>
<path d="M1202 680 c-18 -4 -42 -16 -52 -25 -19 -17 -20 -17 -20 3 0 19 -6 22
-45 22 l-45 0 0 -185 0 -185 45 0 45 0 0 119 c0 110 2 122 23 145 33 37 84 39
117 4 18 -19 20 -35 20 -145 l0 -123 45 0 45 0 0 138 c0 118 -3 141 -20 169
-33 55 -91 78 -158 63z"/>
<path d="M1831 680 c-77 -18 -121 -78 -128 -173 -4 -51 0 -70 19 -107 65 -125
241 -132 311 -12 l19 32 -47 0 c-32 0 -55 -6 -72 -20 -14 -11 -38 -20 -54 -20
-32 0 -77 36 -81 65 -3 19 3 20 130 23 l132 3 0 35 c0 39 -22 99 -48 127 -37
42 -118 62 -181 47z m103 -91 c14 -11 26 -29 26 -40 0 -17 -8 -19 -84 -19 -80
0 -84 1 -79 20 8 29 51 60 83 60 15 0 39 -9 54 -21z"/>
<path d="M2556 680 c-16 -5 -39 -19 -52 -31 l-24 -22 0 26 c0 25 -3 27 -45 27
l-45 0 0 -275 0 -275 45 0 45 0 0 110 c0 61 2 110 5 110 3 0 20 -10 36 -22 43
-32 122 -32 167 0 76 55 101 183 51 272 -37 67 -115 101 -183 80z m88 -111
c70 -83 -5 -214 -99 -174 -101 41 -74 205 34 205 32 0 44 -6 65 -31z"/>
<path d="M2927 676 c-50 -18 -76 -42 -98 -91 -52 -112 10 -261 117 -281 41 -7
106 9 124 31 18 21 29 19 23 -5 -5 -18 0 -20 46 -20 l51 0 0 185 0 185 -46 0
c-37 0 -47 -4 -51 -19 -5 -19 -6 -19 -36 -1 -46 26 -87 31 -130 16z m137 -102
c21 -22 26 -36 26 -76 0 -58 -20 -93 -62 -107 -97 -34 -169 109 -93 185 34 34
93 33 129 -2z"/>
<path d="M860 495 l0 -185 45 0 45 0 0 185 0 185 -45 0 -45 0 0 -185z"/>
<path d="M2130 495 l0 -185 45 0 45 0 0 113 c0 132 9 153 71 163 39 6 39 7 39
50 0 39 -3 44 -23 44 -22 0 -65 -24 -79 -44 -4 -6 -8 1 -8 17 0 25 -3 27 -45
27 l-45 0 0 -185z"/>
<path d="M3270 495 l0 -185 45 0 45 0 0 113 c0 132 9 153 71 163 39 6 39 7 39
50 0 40 -2 44 -24 44 -14 0 -38 -12 -55 -26 l-31 -26 0 26 c0 24 -3 26 -45 26
l-45 0 0 -185z"/>
<path d="M4030 440 l0 -30 100 0 100 0 0 -75 0 -75 35 0 35 0 0 75 0 75 99 0
c97 0 99 0 103 25 3 13 3 27 0 30 -3 3 -110 5 -239 5 l-233 0 0 -30z"/>
<path d="M266 318 c-12 -6 -45 -8 -90 -4 -39 3 -76 2 -83 -2 -15 -10 -43 -75
-43 -101 0 -47 70 -47 85 0 6 19 12 20 51 14 46 -6 147 16 159 35 7 12 -34 70
-49 70 -6 0 -19 -6 -30 -12z"/>
</g>
</svg>
