<svg xmlns="http://www.w3.org/2000/svg" xml:space="preserve" width="828.75928" height="400" viewBox="0 0 828.75927 400"><path d="M-890.331 2384.646c5.565-3.143 5.666-13.135 5.666-17.812v-25.343l.028-16.403h-.323c-15.017 0-27.2-11.621-27.2-25.956 0-14.338 12.183-25.963 27.2-25.963 15.02 0 27.195 11.625 27.195 25.963 0 12.004-8.54 22.104-20.137 25.071 5.456 2.898 9.517 9.243 9.517 17.284v12.885h7.711v-12.885l.035-18.998c8.485 0 16.254 7.878 16.254 18.998v32.83c0 2.842-1.077 5.252-3.228 7.235-2.008 1.892-3.173 3.09-5.751 3.09H-866.334c5.566-3.143 5.66-13.135 5.66-17.812v-.191h-7.711v7.679c0 2.84-1.073 5.251-3.224 7.234-2.007 1.892-3.163 3.09-5.749 3.09h-7.307zm5.37-73.144c7.5 0 13.596-5.543 13.596-12.366 0-6.822-6.096-12.369-13.595-12.369-7.5 0-13.595 5.547-13.595 12.369 0 6.823 6.095 12.366 13.595 12.366zM-818.166 2321.949c-2.244 0-3.942-.581-5.106-1.747-1.16-1.157-1.736-2.557-1.736-4.192 0-1.64.577-3.034 1.736-4.201 1.164-1.162 2.862-1.74 5.106-1.74h70.642v-18.432h.002l.062-18.182c9.952 0 15.167 7.598 15.406 18.305h.006v.397c.002.127.006.253.006.38h-.006v17.786c0 7.759-1.841 11.626-10.964 11.626zM-754.151 2384.646c5.57-3.143 5.668-13.135 5.668-17.812v-22.624l.032-18.991c8.485 0 16.248 7.874 16.248 18.991v10.166h8.481c2.069 0 3.657.599 4.78 1.813 1.117 1.192 1.682 2.623 1.682 4.254 0 1.637-.59 3.078-1.753 4.324-1.155 1.25-2.727 1.876-4.709 1.876h-8.481v7.679c0 2.84-1.077 5.251-3.222 7.234-2.01 1.892-3.169 3.09-5.747 3.09h-7.311zM-634.336 2384.646c5.577-3.143 5.67-13.135 5.67-17.812v-74.297l.03-18.991c8.477 0 16.258 7.876 16.258 18.991v61.839h8.474c2.068 0 3.657.599 4.78 1.813 1.109 1.192 1.682 2.623 1.682 4.254 0 1.637-.59 3.078-1.753 4.324-1.163 1.25-2.732 1.876-4.709 1.876h-8.474v7.679c0 2.84-1.08 5.251-3.234 7.234-2.001 1.892-3.17 3.09-5.737 3.09h-7.317zM-672.324 2384.647c3.007 0 5.122-1.346 6.344-3.531 1.23-2.182 1.848-4.677 1.848-7.498v-11.461c0-6.007.722-11.515 2.177-16.509 1.457-5.004 3.483-9.53 6.075-13.576a53.874 53.874 0 0 1 9.143-10.847 71.4 71.4 0 0 1 11.386-8.458l-8.045-10.774c-2.641 1.184-5.456 2.946-8.461 5.316-3 2.361-5.84 5.026-8.526 7.98-2.68 2.961-5.095 6.025-7.23 9.206-2.137 3.191-3.71 6.146-4.711 8.876-1.089-3.643-2.724-7.216-4.91-10.711a65.35 65.35 0 0 0-7.5-9.83 70.334 70.334 0 0 0-9.075-8.247c-3.23-2.457-6.429-4.458-9.618-6.006l-9.683 12.55c4.09 2.182 7.977 4.952 11.662 8.321a57.122 57.122 0 0 1 9.616 11.462c2.732 4.278 4.89 9.007 6.482 14.194 1.589 5.182 2.39 10.725 2.39 16.64v12.827c0 1.546-.27 3.275-.818 5.185-.554 1.914-1.598 3.703-3.144 4.891zM-782.984 2342.32h-20.242c-1.416 0-2.424.236-3.015.707-.589.484-.893 1.423-.893 2.851v11.231h24.15zm14.016 40.352c-1.057 1.264-2.862 1.975-5.385 1.975h-13.249c3.078-2.37 4.618-6.154 4.618-11.21v-4.965h-24.15v8.052c0 2.366-.526 4.18-1.594 5.443-1.069 1.261-2.86 1.89-5.377 1.89h-13.257c3.068-2.363 4.614-6.076 4.614-11.127v-30.051c0-4.027 1.002-6.987 3.013-8.88 2.014-1.886 4.562-2.84 7.636-2.84h44.733v46.27c0 2.37-.538 4.176-1.602 5.443" style="fill:#ff6d00;fill-opacity:1;fill-rule:nonzero;stroke:none;stroke-width:2.02361" transform="matrix(1.33333 0 0 -1.33333 1543.917 3349.614)"/><path d="M-915.27 2337.54c-2.285-2.41-5.21-3.617-8.763-3.617s-6.39 1.208-8.513 3.618c-2.107 2.41-3.167 5.275-3.167 8.576 0 1.518.271 3.021.822 4.5.554 1.47 1.331 2.795 2.345 3.934 1.024 1.148 2.248 2.07 3.691 2.799 1.435.716 3.048 1.08 4.822 1.08 1.777 0 3.404-.364 4.881-1.08 1.49-.729 2.78-1.651 3.881-2.799a12.135 12.135 0 0 0 2.536-3.934c.597-1.479.895-2.982.895-4.5 0-3.3-1.144-6.166-3.43-8.576m20.055 37.269h-21.322v5.457c0 2.117-.468 3.999-1.403 5.65-.928 1.658-2.782 2.48-5.58 2.48h-12.7a5.217 5.217 0 0 0 1.834-1.72 9.272 9.272 0 0 0 1.085-2.286c.253-.795.45-1.608.57-2.412.126-.799.185-1.503.185-2.104v-5.065h-22.592v-12.193h11.808a21.789 21.789 0 0 1-5.397-7.815c-1.234-3-1.847-6.155-1.847-9.456 0-3.388.613-6.536 1.847-9.456a22.459 22.459 0 0 1 5.264-7.623c2.286-2.16 5.06-3.87 8.323-5.138 3.248-1.271 6.953-1.904 11.107-1.904 4.064 0 7.743.633 11.05 1.904 3.294 1.269 6.096 2.979 8.375 5.138a22.283 22.283 0 0 1 5.271 7.623c1.22 2.92 1.836 6.068 1.836 9.456 0 3.3-.615 6.455-1.836 9.456a21.763 21.763 0 0 1-5.397 7.815h9.52zM-1054.097 2386.255c-23.481 0-42.984-19.71-42.764-43.17-.047-6.164 1.486-12.358 4.119-17.911 6.304-13.315 19.26-22.838 34.584-24.279-3.412-10.49-14.727-18.906-24.483-24.53a1.298 1.298 0 0 1-.644-1.07c-.062-1.203 1.317-1.379 2.162-1.683.22-.15 2.126 0 2.374 0 .074 0 .148 0 .2.022 15.057 2.432 27.714 7.258 38.67 15.432 3.279 2.493 6.385 5.182 9.262 8.126 7.846 8.01 13.366 16.566 16.515 25.58a55.538 55.538 0 0 1 3.129 18.44c0 5.653-.81 10.88-2.406 15.645-1.54 4.621-3.882 8.98-6.925 12.78-4.665 6.019-10.927 10.778-18.001 13.592a42.493 42.493 0 0 1-15.792 3.026zm15.177-19.274h.213-.613.4zm-.786-.01c-.237 0-.476-.01-.714-.015.238.01.477.012.714.014zm1.4-.01c.196 0 .392-.01.587-.015-.195.01-.391.01-.587.014zm-2.584-.026c-.252-.01-.503-.019-.756-.032.253.013.504.023.755.032zm3.567 0 .627-.03c-.21.011-.418.022-.628.03zm.982-.048zm-5.721-.01zm-1.02-.07c-.204-.016-.41-.034-.615-.052.206.018.41.036.615.052zm8.014-.022zm-9.007-.066c-.239-.023-.478-.049-.718-.075.24.027.479.053.718.076zm9.99-.035zm-11.009-.074c-.275-.032-.55-.068-.826-.104.257.035.514.069.771.099.018 0 .037 0 .055.01zm11.948-.044zm-13.004-.088zm13.944-.053zm-16.5-.357c-.223-.04-.445-.08-.667-.123.222.043.444.083.667.123zm-1.13-.216c-.209-.042-.419-.084-.628-.13.21.046.419.087.629.13zm-1.107-.235-.583-.13.583.13zm-1.097-.254c-.19-.046-.38-.09-.57-.139.19.048.38.093.57.14zm-1.052-.262zm-1.072-.288zm-1.102-.318-.569-.172.569.172zm-1.068-.328-.612-.198.612.198zm25.728-.032.1-.315-.1.315zm-26.772-.309zm-1.083-.373zm-1.055-.385c-.21-.078-.418-.16-.627-.24l.627.24zm-1.067-.412a60.793 60.793 0 0 1-.652-.263c.217.088.434.177.652.263zm-1.036-.419c-.23-.095-.458-.193-.686-.29.228.097.456.195.686.29zm-1.059-.45zm32.801-.014.11-.367-.11.367zm-33.839-.449zm-1.149-.539zm-1.194-.59zm-1.104-.572zm37.992-.256.11-.391-.11.391zm-39.014-.299zm-1.026-.58-.505-.295c.168.099.336.197.505.294zm-.987-.584zm-.96-.59zm42.683-.457c.01-.031.017-.063.025-.095-.01.03-.017.063-.025.095zm-43.624-.147zm-.944-.63zm-.922-.641zm-.916-.663c-.157-.116-.312-.234-.467-.35.155.116.31.234.467.35zm46.993-.167.065-.255c-.02.085-.044.17-.065.255zm-47.887-.508c-.174-.133-.346-.269-.518-.405.172.136.344.272.518.405zm-.86-.675zm-.867-.708zm50.213-.536.07-.286-.07.286zm-51.062-.188zm-1.143-1.027c-.165-.152-.331-.304-.494-.459.163.155.329.307.494.459zm-.854-.806c-.143-.138-.287-.276-.429-.416.142.14.286.278.43.416zm53.626-.43.07-.315-.07.315zm-54.428-.362c-.133-.134-.267-.268-.398-.404.131.136.265.27.398.404zm-.758-.782c-.134-.142-.269-.284-.401-.427.132.143.267.285.401.427zm-.734-.792zm56.466-.603c0-.01 0-.019.01-.028l.031-.153-.037.181zm-57.202-.229zm-.709-.84zm58.21-.413.067-.34c-.022.114-.043.227-.066.34zm-58.876-.416zm-.66-.863zm59.817-.182.09-.486-.09.486zm-60.463-.708a49.66 49.66 0 0 1-.288-.416c.096.14.191.278.288.416zm60.727-.734.1-.57c-.032.19-.066.38-.1.57zm-61.337-.155c-.095-.142-.187-.285-.28-.428.093.143.185.286.28.428zm-.574-.882c-.098-.156-.194-.313-.29-.47.096.157.192.314.29.47zm62.18-.517c.028-.16.055-.32.08-.48-.025.16-.052.32-.08.48zm-62.741-.4c-.092-.154-.18-.31-.27-.465.09.155.178.31.27.465zm-.529-.917c-.09-.162-.177-.326-.265-.489.088.163.175.327.265.489zm63.503-.106.097-.616-.097.616zm-64.011-.834c-.09-.17-.174-.343-.26-.515.086.172.17.344.26.515zm64.248-.706.077-.52-.077.52zm-65.375-1.659c-.07-.162-.142-.323-.21-.486.068.163.14.324.21.486zm-.408-.978a26.89 26.89 0 0 1-.194-.489c.062.164.129.327.194.49zm-.426-1.119c-.062-.174-.125-.349-.185-.524.06.175.122.35.185.524zm-.326-.945zm67.19-.27c.023-.187.043-.375.064-.563l-.063.564zm-67.494-.705zm67.659-.79zm-67.93-.181c-.048-.18-.094-.36-.139-.54.044.18.091.36.138.54zm3.081-.985zm-3.368-.18-.047-.206.047.206zm68.364-.137zm-68.587-.932-.054-.292c.018.097.035.195.054.292zm68.724-.618c.013-.162.027-.323.039-.485l-.04.485zm-68.885-.302-.05-.315.05.315zm-.17-1.177c-.01-.073-.017-.147-.026-.22.01.073.017.147.026.22zm69.172-.03.036-.5c-.011.167-.024.334-.036.5zm-69.277-.926c-.01-.09-.017-.18-.025-.27.01.09.016.18.025.27zm69.375-.539c.01-.18.023-.359.033-.539l-.033.54zm.087-1.554c.01-.155.016-.31.024-.464-.01.155-.016.31-.024.464zm-.54-4.29c-.045-.159-.095-.315-.143-.472.048.157.097.313.144.472zm-.344-1.129c-.056-.174-.115-.346-.172-.52.057.174.116.346.172.52zm-.375-1.13c-.057-.166-.117-.33-.176-.494.059.164.118.328.176.494zm-54.22-.301a60 60 0 0 1 2.14-2.062 57.57 57.57 0 0 0 0 0 60 60 0 0 0-2.14 2.062zm53.827-.796c-.063-.17-.129-.34-.193-.509.065.17.13.338.193.509zm-.417-1.09c-.061-.154-.124-.307-.186-.46.062.153.125.306.186.46zm-.445-1.09c-.053-.127-.107-.252-.161-.378l.161.377zm-.463-1.073-.168-.373.168.373zm-.457-1.007-.207-.438.207.438zm-.498-1.047zm-.505-1.015zm-.51-.991-.219-.414.219.414zm-.55-1.032-.19-.349.19.35zm-.536-.974-.219-.392.22.392zm-.563-.999-.192-.335.192.335zm-.467-.809c-.188-.325-.38-.648-.571-.97.191.322.383.645.571.97zm-30.508-.33a48.057 48.057 0 0 1 3.997-1.456 47.022 47.022 0 0 0-3.997 1.456zm29.248-1.8-.445-.734.445.734zm-25.382-.213zm24.145-1.824c-.732-1.196-1.47-2.396-2.206-3.604.737 1.21 1.474 2.407 2.206 3.604zm-25.351-1.97zm22.554-2.609zm-23.953-.513zm22.798-1.424zm-25.107-2.552zm22.817-1.505-.3-.563.036.07c.087.166.176.329.264.493zm-27.016-4.065zm-4.762-5.098c-2.462-2.432-5.001-4.69-7.417-6.775 2.416 2.085 4.955 4.343 7.417 6.775zm-7.417-6.775c-.23-.02-1.894-.157-2.278-.067.384-.09 2.047.054 2.278.067zm-.281-.717zM-995.728 2384.646c4.002-2.105 5.385-7.15 5.864-11.672h-7.942c-1.986 0-3.566-.63-4.732-1.884-1.168-1.262-1.754-2.703-1.754-4.344 0-1.65.57-3.072 1.695-4.282 1.115-1.212 2.71-1.807 4.79-1.807h8.196v-12.395h-8.195c-1.986 0-3.566-.623-4.732-1.873-1.168-1.255-1.754-2.708-1.754-4.35 0-1.643.57-3.067 1.695-4.283 1.115-1.206 2.71-1.815 4.79-1.815h8.196v-43.557l.03-19.087c9.165 0 17.553 7.926 17.553 19.087v82.136c0 2.863-1.162 5.276-3.48 7.273-2.172 1.894-3.427 2.853-6.211 2.853h-7.892z" style="fill:#ff6d00;fill-opacity:1;fill-rule:nonzero;stroke:none;stroke-width:2.02361" transform="matrix(1.33333 0 0 -1.33333 1543.917 3349.614)"/><path d="M-1001.096 2433.201c-1.69 0-2.323-.25-3.384-1.202-1.108-.993-3.407-3.367-3.925-4.126-.251-.362-.146-.696.065-1.05 1.236-2.105 3.488-2.734 6.676-2.734h24.342c1.69 0 2.325.249 3.383 1.2 1.109.993 3.408 3.363 3.928 4.126.247.362.144.7-.065 1.052-1.236 2.103-3.49 2.734-6.68 2.734z" style="fill:#fa2828;fill-opacity:1;fill-rule:nonzero;stroke:none;stroke-width:2.02361" transform="matrix(1.33333 0 0 -1.33333 1543.917 3349.614)"/><path d="M-938.417 2438.102c-1.506.767-2.183.832-3.56.465-1.44-.382-4.565-1.453-5.372-1.894-.387-.21-.445-.554-.419-.965.148-2.437 1.866-4.021 4.707-5.468l21.689-11.05c1.505-.768 2.185-.835 3.56-.468 1.438.384 4.563 1.453 5.372 1.894.387.21.445.558.421.967-.148 2.434-1.87 4.021-4.711 5.47zM-956.544 2450.798c-.334.199-.647.296-.99.061-.716-.49-2.954-2.657-3.893-3.703-.896-1-1.133-1.597-1.133-3.191v-31.174c0-3.01.595-5.136 2.58-6.301.332-.197.65-.294.992-.061.718.491 2.954 2.659 3.893 3.705.897.997 1.131 1.596 1.131 3.19v31.177c0 3.007-.595 5.13-2.58 6.297M-899.808 2450.798c-.334.199-.65.296-.99.061-.716-.49-2.954-2.657-3.893-3.703-.896-1-1.133-1.597-1.133-3.191v-31.174c0-3.01.595-5.136 2.58-6.301.332-.197.65-.294.992-.061.718.491 2.954 2.659 3.893 3.705.896.997 1.131 1.596 1.131 3.19v31.177c0 3.007-.595 5.13-2.58 6.297M-1057.048 2438.102c-1.505.767-2.183.832-3.56.465-1.438-.382-4.565-1.453-5.372-1.894-.387-.21-.445-.554-.419-.965.148-2.437 1.868-4.021 4.707-5.468l21.69-11.05c1.507-.768 2.185-.835 3.559-.468 1.438.384 4.563 1.453 5.372 1.894.387.21.445.558.421.967-.147 2.434-1.87 4.021-4.71 5.47zM-1075.175 2450.798c-.334.199-.647.296-.99.061-.716-.49-2.954-2.657-3.893-3.703-.896-1-1.133-1.597-1.133-3.191v-31.174c0-3.01.595-5.136 2.58-6.301.332-.197.65-.294.992-.061.718.491 2.954 2.659 3.893 3.705.897.997 1.131 1.596 1.131 3.19v31.177c0 3.007-.594 5.13-2.58 6.297M-1018.439 2450.798c-.334.199-.647.296-.99.061-.716-.49-2.954-2.657-3.893-3.703-.896-1-1.133-1.597-1.133-3.191v-31.174c0-3.01.595-5.136 2.58-6.301.332-.197.65-.294.992-.061.718.491 2.954 2.659 3.893 3.705.897.997 1.131 1.596 1.131 3.19v31.177c0 3.007-.595 5.13-2.58 6.297" style="fill:#494949;fill-opacity:1;fill-rule:nonzero;stroke:none;stroke-width:2.02361" transform="matrix(1.33333 0 0 -1.33333 1543.917 3349.614)"/></svg>