<?xml version="1.0" standalone="no"?>
<!DOCTYPE svg PUBLIC "-//W3C//DTD SVG 20010904//EN"
 "http://www.w3.org/TR/2001/REC-SVG-20010904/DTD/svg10.dtd">
<svg version="1.0" xmlns="http://www.w3.org/2000/svg"
 width="433.000000pt" height="122.000000pt" viewBox="0 0 433.000000 122.000000"
 preserveAspectRatio="xMidYMid meet">

<g transform="translate(0.000000,122.000000) scale(0.100000,-0.100000)"
fill="#000000" stroke="none">
<path d="M618 1141 c-147 -47 -255 -153 -308 -302 -15 -45 -23 -55 -54 -65
-115 -40 -197 -147 -212 -278 -11 -90 25 -186 96 -258 81 -81 141 -98 344 -98
l152 0 54 -55 c30 -30 61 -55 70 -55 9 0 40 25 70 55 l53 54 351 3 c347 3 352
3 400 27 102 50 156 133 164 249 4 66 2 78 -27 137 -18 36 -48 78 -69 95 -43
36 -129 70 -175 70 -29 0 -35 5 -46 37 -35 96 -153 173 -266 173 -33 0 -55 4
-55 11 0 20 -114 130 -164 158 -110 62 -261 79 -378 42z m273 -61 c118 -36
220 -138 260 -259 17 -51 21 -80 17 -155 -7 -144 -26 -176 -234 -386 l-173
-175 -171 170 c-220 219 -235 246 -235 415 0 107 2 119 29 175 51 104 167 201
270 226 62 14 172 9 237 -11z m417 -226 c65 -27 118 -91 136 -166 6 -26 10
-28 64 -28 210 -1 312 -253 161 -397 -63 -59 -88 -63 -427 -63 l-305 0 104
108 c57 59 116 130 131 158 56 104 72 227 43 337 -8 32 -15 60 -15 62 0 11 74
4 108 -11z m-1018 -181 c0 -126 51 -225 188 -365 l105 -108 -125 0 c-160 0
-212 15 -279 82 -52 52 -79 117 -79 189 0 88 65 192 145 233 43 23 45 21 45
-31z"/>
<path d="M2960 685 l0 -175 40 0 40 0 0 70 0 70 45 0 c45 0 45 0 45 35 0 35 0
35 -45 35 l-45 0 0 70 0 70 -40 0 -40 0 0 -175z"/>
<path d="M3210 825 c0 -34 1 -35 40 -35 l40 0 0 -50 0 -50 -40 0 c-38 0 -40
-1 -40 -32 l0 -33 213 0 212 0 3 33 c3 32 3 32 -42 32 l-46 0 0 49 0 50 42 3
c39 3 42 5 43 33 l0 30 -212 3 -213 2 0 -35z m270 -85 l0 -51 -57 3 -58 3 -1
35 c-1 56 3 60 62 60 l54 0 0 -50z"/>
<path d="M3888 780 l-3 -78 -50 -44 c-27 -23 -62 -54 -77 -68 l-28 -25 23 -29
23 -29 76 67 76 66 54 -47 c94 -83 85 -78 108 -58 11 10 20 24 20 31 0 6 -32
41 -71 76 l-71 63 -1 73 c0 66 -2 72 -21 73 -12 0 -28 2 -37 4 -14 2 -18 -9
-21 -75z"/>
<path d="M4190 800 l0 -60 -60 0 -60 0 0 -35 0 -34 57 -3 56 -3 1 -105 1 -105
38 -3 37 -3 0 205 0 206 -35 0 -35 0 0 -60z"/>
<path d="M2060 690 l0 -160 75 0 75 0 0 -50 0 -50 -120 0 -120 0 0 -34 c0 -19
6 -36 13 -38 24 -8 532 -9 543 -1 7 4 9 22 7 41 l-5 32 -119 0 -119 0 0 49 0
48 53 6 c93 9 121 32 97 77 -10 18 -13 18 -51 5 -26 -10 -80 -15 -145 -15
l-104 0 0 125 0 125 -40 0 -40 0 0 -160z"/>
<path d="M2560 815 l0 -35 105 0 105 0 0 -25 0 -25 -105 0 -105 0 0 -100 0
-100 118 0 c112 0 183 11 209 32 11 8 6 32 -12 66 -1 1 -18 -5 -38 -13 -23 -9
-68 -15 -122 -15 l-85 0 0 30 0 30 98 0 c63 0 102 4 110 12 7 7 12 44 12 95
l0 83 -145 0 -145 0 0 -35z"/>
<path d="M3145 592 c-3 -3 -5 -18 -5 -34 l0 -28 120 0 c100 0 120 -2 120 -15
0 -8 -9 -15 -20 -15 -30 0 -88 -58 -101 -100 -42 -138 113 -247 251 -178 113
57 113 208 0 266 -25 12 -46 27 -48 32 -2 6 43 10 120 10 l123 0 0 30 c0 17
-2 31 -5 31 -16 5 -550 5 -555 1z m350 -177 c58 -57 16 -145 -68 -145 -65 0
-97 28 -97 85 0 35 5 48 26 64 39 31 107 29 139 -4z"/>
<path d="M2760 498 c-146 -74 -106 -280 58 -296 65 -6 110 10 152 53 29 30 34
43 38 92 3 48 0 64 -20 93 -28 42 -98 80 -148 80 -20 0 -56 -10 -80 -22z m154
-77 c32 -32 28 -96 -7 -127 -55 -47 -147 -21 -162 46 -8 37 12 80 45 98 34 17
98 9 124 -17z"/>
<path d="M3910 349 l0 -121 148 4 c197 6 245 26 211 89 -9 17 -13 18 -26 7
-11 -8 -59 -15 -140 -18 l-123 -5 0 83 0 82 -35 0 -35 0 0 -121z"/>
</g>
</svg>
